<?xml version="1.0" encoding="UTF-8" standalone="no"?>
<!-- Created with Inkscape (http://www.inkscape.org/) -->

<svg
   width="150.42999mm"
   height="150.42999mm"
   viewBox="0 0 150.43 150.43"
   version="1.1"
   id="svg1"
   xml:space="preserve"
   inkscape:version="1.3.2 (091e20e, 2023-11-25)"
   sodipodi:docname="그리기.svg"
   xmlns:inkscape="http://www.inkscape.org/namespaces/inkscape"
   xmlns:sodipodi="http://sodipodi.sourceforge.net/DTD/sodipodi-0.dtd"
   xmlns="http://www.w3.org/2000/svg"
   xmlns:svg="http://www.w3.org/2000/svg"><sodipodi:namedview
     id="namedview1"
     pagecolor="#ffffff"
     bordercolor="#000000"
     borderopacity="0.25"
     inkscape:showpageshadow="2"
     inkscape:pageopacity="0.0"
     inkscape:pagecheckerboard="0"
     inkscape:deskcolor="#d1d1d1"
     inkscape:document-units="mm"
     inkscape:zoom="0.70710678"
     inkscape:cx="465.27626"
     inkscape:cy="132.22897"
     inkscape:window-width="2048"
     inkscape:window-height="1050"
     inkscape:window-x="0"
     inkscape:window-y="25"
     inkscape:window-maximized="1"
     inkscape:current-layer="layer3" /><defs
     id="defs1" /><g
     inkscape:groupmode="layer"
     id="layer2"
     inkscape:label="Layer 2"
     transform="translate(-44.527107,-69.202837)"><circle
       style="fill:#000000;fill-opacity:1;stroke-width:0.264583"
       id="path2"
       cx="120.11092"
       cy="144.40239"
       r="71.093689" /></g><g
     inkscape:groupmode="layer"
     id="layer3"
     inkscape:label="Layer 3"
     transform="translate(-44.527107,-69.202837)"><path
       style="fill:#ffffff;fill-opacity:1;stroke:#000000;stroke-width:3;stroke-linecap:round;stroke-linejoin:round;stroke-dasharray:none;stroke-dashoffset:0;stroke-opacity:1"
       d="m 94.889635,126.82493 c 0,0 -11.17911,-15.79393 -14.58128,-33.350797 -3.76199,-19.41369 12.03432,-34.904322 23.423105,-9.61743 6.43421,14.28605 6.59077,24.589577 7.44577,35.212237 0,0 3.87799,-0.93072 9.3072,-1.08584 5.4292,-0.15512 8.37647,1.55119 8.37647,1.55119 0,0 1.70633,-24.819207 7.756,-36.608307 6.04968,-11.78912 15.07614,-13.83739 19.07976,-10.0828 1.59881,1.49937 8.3369,11.13189 2.17168,29.317677 -5.83573,17.2139 -13.1852,24.97431 -13.1852,24.97431 0,0 20.87439,18.5377 16.28759,40.79656 -3.4433,16.70966 -24.81918,20.1656 -24.81918,20.1656 0,0 8.99696,8.99696 7.75599,13.18519 -1.24096,4.18825 -5.89455,3.72288 -5.89455,3.72288 0,0 0.62048,9.61744 -7.44576,11.634 -8.06625,2.01657 -15.35688,2.17168 -22.18216,-0.62048 -6.82529,-2.79216 -6.04969,-10.70327 -6.04969,-10.70327 0,0 -7.722215,-0.45603 -5.894555,-6.51504 1.48517,-4.92354 7.135515,-10.54816 7.135515,-10.54816 0,0 -24.413795,-3.85837 -24.974305,-25.90504 -0.46536,-18.30416 16.2876,-35.52248 16.2876,-35.52248 z"
       id="path1-9"
       sodipodi:nodetypes="csscscssscscscsscscsc" /></g><g
     inkscape:label="Layer 1"
     inkscape:groupmode="layer"
     id="layer1"
     style="display:none"
     transform="translate(-44.527107,-69.202837)"><path
       style="fill:#ffffff;fill-opacity:1;stroke-width:0.31024"
       d="m 90.399505,126.82493 c 0,0 -11.179105,-15.79393 -14.581279,-33.350791 -3.761992,-19.413698 12.034321,-34.904327 23.423111,-9.617437 6.434203,14.286057 6.590763,24.589578 7.445763,35.212238 0,0 3.87799,-0.93072 9.3072,-1.08584 5.4292,-0.15512 8.37647,1.55119 8.37647,1.55119 0,0 1.70633,-24.819201 7.756,-36.608308 6.04968,-11.789114 15.07614,-13.837386 19.07976,-10.082793 1.59881,1.49937 8.3369,11.131883 2.17168,29.317671 -5.83573,17.2139 -13.1852,24.97431 -13.1852,24.97431 0,0 20.87439,18.5377 16.28759,40.79656 -3.4433,16.70966 -24.81918,20.1656 -24.81918,20.1656 0,0 8.99696,8.99696 7.75599,13.18519 -1.24096,4.18825 -5.89455,3.72288 -5.89455,3.72288 0,0 0.62048,9.61744 -7.44576,11.634 -8.06625,2.01657 -15.35688,2.17168 -22.18216,-0.62048 -6.825281,-2.79216 -6.049679,-10.70327 -6.049679,-10.70327 0,0 -7.722224,-0.45603 -5.894557,-6.51504 1.485161,-4.92354 7.135513,-10.54816 7.135513,-10.54816 0,0 -24.413801,-3.85837 -24.97431,-25.90504 -0.46536,-18.30416 16.287598,-35.52248 16.287598,-35.52248 z"
       id="path1"
       sodipodi:nodetypes="csscscssscscscsscscsc" /></g></svg>
